<mxfile host="app.diagrams.net" modified="2023-06-26T12:48:17.420Z" agent="Mozilla/5.0 (Windows NT 10.0; Win64; x64) AppleWebKit/537.36 (KHTML, like Gecko) Chrome/114.0.0.0 Safari/537.36" etag="901ZXcnjt2gV-hEsrRwA" version="21.5.0" type="github">
  <diagram name="Página-1" id="dDICzCoADiw5VqMw8ry5">
    <mxGraphModel dx="1114" dy="616" grid="1" gridSize="10" guides="1" tooltips="1" connect="1" arrows="1" fold="1" page="1" pageScale="1" pageWidth="827" pageHeight="1169" math="0" shadow="0">
      <root>
        <mxCell id="0" />
        <mxCell id="1" parent="0" />
        <mxCell id="l5kP2ULWHXhKhwUrxXBp-4" style="edgeStyle=orthogonalEdgeStyle;rounded=0;orthogonalLoop=1;jettySize=auto;html=1;exitX=0.5;exitY=0.8;exitDx=0;exitDy=0;entryX=0.5;entryY=0;entryDx=0;entryDy=0;exitPerimeter=0;endArrow=open;endFill=0;" edge="1" parent="1" source="l5kP2ULWHXhKhwUrxXBp-1" target="l5kP2ULWHXhKhwUrxXBp-2">
          <mxGeometry relative="1" as="geometry" />
        </mxCell>
        <mxCell id="l5kP2ULWHXhKhwUrxXBp-1" value="" style="ellipse;html=1;shape=startState;fillColor=#000000;strokeColor=#000000;" vertex="1" parent="1">
          <mxGeometry x="384" y="40" width="30" height="30" as="geometry" />
        </mxCell>
        <mxCell id="l5kP2ULWHXhKhwUrxXBp-10" style="edgeStyle=orthogonalEdgeStyle;rounded=0;orthogonalLoop=1;jettySize=auto;html=1;exitX=0.5;exitY=1;exitDx=0;exitDy=0;entryX=0.5;entryY=0;entryDx=0;entryDy=0;endArrow=open;endFill=0;" edge="1" parent="1" source="l5kP2ULWHXhKhwUrxXBp-2" target="l5kP2ULWHXhKhwUrxXBp-8">
          <mxGeometry relative="1" as="geometry" />
        </mxCell>
        <mxCell id="l5kP2ULWHXhKhwUrxXBp-2" value="Buscar ingresso" style="rounded=1;whiteSpace=wrap;html=1;fillColor=#dae8fc;gradientColor=#7ea6e0;strokeColor=#6c8ebf;" vertex="1" parent="1">
          <mxGeometry x="339" y="110" width="120" height="60" as="geometry" />
        </mxCell>
        <mxCell id="l5kP2ULWHXhKhwUrxXBp-7" style="edgeStyle=orthogonalEdgeStyle;rounded=0;orthogonalLoop=1;jettySize=auto;html=1;exitX=0;exitY=0;exitDx=100;exitDy=40;exitPerimeter=0;entryX=0;entryY=0.5;entryDx=0;entryDy=0;endArrow=none;endFill=0;dashed=1;" edge="1" parent="1" source="l5kP2ULWHXhKhwUrxXBp-6" target="l5kP2ULWHXhKhwUrxXBp-2">
          <mxGeometry relative="1" as="geometry" />
        </mxCell>
        <mxCell id="l5kP2ULWHXhKhwUrxXBp-6" value="Digite o código&lt;br style=&quot;border-color: var(--border-color);&quot;&gt;&lt;span style=&quot;&quot;&gt;&amp;nbsp;do ingresso&lt;/span&gt;" style="shape=note;size=20;whiteSpace=wrap;html=1;fillColor=#b0e3e6;strokeColor=#0e8088;" vertex="1" parent="1">
          <mxGeometry x="150" y="100" width="100" height="60" as="geometry" />
        </mxCell>
        <mxCell id="l5kP2ULWHXhKhwUrxXBp-11" style="edgeStyle=orthogonalEdgeStyle;shape=connector;rounded=0;orthogonalLoop=1;jettySize=auto;html=1;exitX=1;exitY=0.5;exitDx=0;exitDy=0;entryX=0.992;entryY=0.4;entryDx=0;entryDy=0;entryPerimeter=0;labelBackgroundColor=default;strokeColor=default;fontFamily=Helvetica;fontSize=11;fontColor=default;endArrow=open;endFill=0;" edge="1" parent="1" source="l5kP2ULWHXhKhwUrxXBp-8" target="l5kP2ULWHXhKhwUrxXBp-2">
          <mxGeometry relative="1" as="geometry">
            <Array as="points">
              <mxPoint x="520" y="245" />
              <mxPoint x="520" y="134" />
            </Array>
          </mxGeometry>
        </mxCell>
        <mxCell id="l5kP2ULWHXhKhwUrxXBp-15" style="edgeStyle=orthogonalEdgeStyle;shape=connector;rounded=0;orthogonalLoop=1;jettySize=auto;html=1;exitX=0.5;exitY=1;exitDx=0;exitDy=0;entryX=0.5;entryY=0;entryDx=0;entryDy=0;labelBackgroundColor=default;strokeColor=default;fontFamily=Helvetica;fontSize=11;fontColor=default;endArrow=open;endFill=0;" edge="1" parent="1" source="l5kP2ULWHXhKhwUrxXBp-8" target="l5kP2ULWHXhKhwUrxXBp-14">
          <mxGeometry relative="1" as="geometry" />
        </mxCell>
        <mxCell id="l5kP2ULWHXhKhwUrxXBp-8" value="" style="rhombus;whiteSpace=wrap;html=1;fillColor=#1ba1e2;strokeColor=#006EAF;fontColor=#ffffff;" vertex="1" parent="1">
          <mxGeometry x="384" y="230" width="30" height="30" as="geometry" />
        </mxCell>
        <mxCell id="l5kP2ULWHXhKhwUrxXBp-12" value="Código invalido" style="text;html=1;strokeColor=none;fillColor=none;align=center;verticalAlign=middle;whiteSpace=wrap;rounded=0;fontSize=11;fontFamily=Helvetica;fontColor=default;" vertex="1" parent="1">
          <mxGeometry x="350" y="180" width="60" height="30" as="geometry" />
        </mxCell>
        <mxCell id="l5kP2ULWHXhKhwUrxXBp-13" value="sim" style="text;html=1;strokeColor=none;fillColor=none;align=center;verticalAlign=middle;whiteSpace=wrap;rounded=0;fontSize=11;fontFamily=Helvetica;fontColor=default;" vertex="1" parent="1">
          <mxGeometry x="410" y="220" width="60" height="30" as="geometry" />
        </mxCell>
        <mxCell id="l5kP2ULWHXhKhwUrxXBp-18" style="edgeStyle=orthogonalEdgeStyle;shape=connector;rounded=0;orthogonalLoop=1;jettySize=auto;html=1;exitX=0.5;exitY=1;exitDx=0;exitDy=0;entryX=0.5;entryY=0;entryDx=0;entryDy=0;labelBackgroundColor=default;strokeColor=default;fontFamily=Helvetica;fontSize=11;fontColor=default;endArrow=open;endFill=0;" edge="1" parent="1" source="l5kP2ULWHXhKhwUrxXBp-14" target="l5kP2ULWHXhKhwUrxXBp-17">
          <mxGeometry relative="1" as="geometry" />
        </mxCell>
        <mxCell id="l5kP2ULWHXhKhwUrxXBp-14" value="Confirmar deleção" style="rounded=1;whiteSpace=wrap;html=1;fontFamily=Helvetica;fontSize=11;fillColor=#dae8fc;gradientColor=#7ea6e0;strokeColor=#6c8ebf;" vertex="1" parent="1">
          <mxGeometry x="339" y="310" width="120" height="60" as="geometry" />
        </mxCell>
        <mxCell id="l5kP2ULWHXhKhwUrxXBp-16" value="não" style="text;html=1;strokeColor=none;fillColor=none;align=center;verticalAlign=middle;whiteSpace=wrap;rounded=0;fontSize=11;fontFamily=Helvetica;fontColor=default;" vertex="1" parent="1">
          <mxGeometry x="354" y="260" width="60" height="30" as="geometry" />
        </mxCell>
        <mxCell id="l5kP2ULWHXhKhwUrxXBp-17" value="" style="ellipse;html=1;shape=endState;fillColor=#000000;strokeColor=#000000;fontFamily=Helvetica;fontSize=11;fontColor=default;" vertex="1" parent="1">
          <mxGeometry x="384" y="420" width="30" height="30" as="geometry" />
        </mxCell>
      </root>
    </mxGraphModel>
  </diagram>
</mxfile>
